<?xml version="1.0" encoding="UTF-8"?>
<svg id="Layer_1" data-name="Layer 1" xmlns="http://www.w3.org/2000/svg" xmlns:xlink="http://www.w3.org/1999/xlink" viewBox="0 0 298.12 156.43">
  <defs>
    <style>
      .cls-1 {
        fill: url(#linear-gradient);
      }
    </style>
    <linearGradient id="linear-gradient" x1="0" y1="78.21" x2="298.12" y2="78.21" gradientUnits="userSpaceOnUse">
      <stop offset="0" stop-color="#26beef"/>
      <stop offset=".21" stop-color="#28b5e9"/>
      <stop offset=".53" stop-color="#309fd8"/>
      <stop offset=".93" stop-color="#3d7cbe"/>
      <stop offset="1" stop-color="#4075b9"/>
    </linearGradient>
  </defs>
  <path class="cls-1" d="m56.71,106.41l-3.82,8.47-2.47,5.5-15.16,33.62-17.63-39.12-3.82-8.47-2.49-5.54L0,75.78h42.92l7.5,16.66,6.29,13.97ZM1.07,0v38.35h93.22l1.68-3.01,12.22-21.93,7.49-13.41H1.07Zm107.42,0l-6.17,13.67-11.46,25.42-2.41,5.36-7.58,16.8-7.64,16.96-13.81,30.63-3.82,8.47-6.25,13.87-11.38,25.23v.02h42.9l7.58-16.82,10.05-22.3,3.82-8.47,13.81-30.63,7.64-16.96,3.8-8.43,6.19-13.73,11.46-25.42,6.17-13.67h-42.9Zm61.14,0l-6.15,13.67-11.48,25.42-9.99,22.16v.02l-7.64,16.94-13.81,30.63-3.82,8.47-13.83,30.71-3.8,8.41h42.9l17.63-39.12,3.82-8.47,13.81-30.63,3.86-8.59,3.78-8.39,9.99-22.14,11.46-25.44,6.15-13.65h-42.88Zm21.8,57.94l-9.99,22.16-7.58,16.82v.14h42.84l7.64-16.96,9.99-22.16h-42.9ZM255.2,0l-3.64,8.09-2.51,5.58-11.46,25.42-9.99,22.16-7.64,16.96-7.52,16.66-6.29,13.97-3.82,8.47-17.63,39.12h42.9l17.63-39.12,3.82-8.47,2.51-5.58,11.3-25.05,7.64-16.96,9.99-22.16,10.17-22.56,7.46-16.54h-42.92Z"/>
</svg>